# xmcd
#
# Track frame offsets:
# 150
# 13940
# 29050
# 46717
# 65920
# 80895
# 103492
# 118767
# 137815
# 152902
# 174530
# 190162
# 207934
# 223597
# 241715
# 257665
# 273797
# 294180
# 311542
# 327707
#
# Disc length: 4659 seconds
#
#
# Revision: 6
# Processed by: cddbd v1.5.2PL0 Copyright (c) Steve Scherf et al.
# Submitted via: FreeRIP 2.951 
#
DISCID=35123114
DTITLE=John Lennon - Lennon Legend
DYEAR=1900
DGENRE=Rock
TTITLE0=Imagine
TTITLE1=Instant Karma!
TTITLE2=Mother (single edit)
TTITLE3=Jealous Guy
TTITLE4=Power To The People
TTITLE5=Cold Turkey
TTITLE6=Love
TTITLE7=Mind Games
TTITLE8=Whatever Gets You Thru The Night
TTITLE9=#9 Dream
TTITLE10=Stand By Me
TTITLE11=(Just Like) Starting Over
TTITLE12=Woman
TTITLE13=Beautiful Boy (Darling Boy)
TTITLE14=Watching The Wheels
TTITLE15=Nobody Told Me
TTITLE16=Borrowed Time
TTITLE17=Working Class Hero
TTITLE18=Happy Xmas (War Is Over)
TTITLE19=Give Peace A Chance
EXTD=
EXTT0=
EXTT1=
EXTT2=
EXTT3=
EXTT4=
EXTT5=
EXTT6=
EXTT7=
EXTT8=
EXTT9=
EXTT10=
EXTT11=
EXTT12=
EXTT13=
EXTT14=
EXTT15=
EXTT16=
EXTT17=
EXTT18=
EXTT19=
PLAYORDER=
